<mxfile host="app.diagrams.net" agent="Mozilla/5.0 (Macintosh; Intel Mac OS X 10_15_7) AppleWebKit/537.36 (KHTML, like Gecko) Chrome/133.0.0.0 Safari/537.36" version="26.0.16">
  <diagram name="Page-1" id="VNtHVa_nBxqI6XxGFiw2">
    <mxGraphModel grid="1" page="1" gridSize="10" guides="1" tooltips="1" connect="1" arrows="1" fold="1" pageScale="1" pageWidth="827" pageHeight="1169" math="0" shadow="0">
      <root>
        <mxCell id="0" />
        <mxCell id="1" parent="0" />
        <mxCell id="HTADRDToEBWl2uzCXdgg-1" value="Online Consultation" style="swimlane;html=1;childLayout=stackLayout;resizeParent=1;resizeParentMax=0;horizontal=1;startSize=20;horizontalStack=0;whiteSpace=wrap;" vertex="1" parent="1">
          <mxGeometry x="170" y="70" width="1410" height="750" as="geometry" />
        </mxCell>
        <mxCell id="HTADRDToEBWl2uzCXdgg-2" value="Patient" style="swimlane;html=1;startSize=20;horizontal=0;" vertex="1" parent="HTADRDToEBWl2uzCXdgg-1">
          <mxGeometry y="20" width="1410" height="120" as="geometry" />
        </mxCell>
        <mxCell id="HTADRDToEBWl2uzCXdgg-7" style="edgeStyle=orthogonalEdgeStyle;rounded=0;orthogonalLoop=1;jettySize=auto;html=1;" edge="1" parent="HTADRDToEBWl2uzCXdgg-2" source="HTADRDToEBWl2uzCXdgg-5" target="HTADRDToEBWl2uzCXdgg-6">
          <mxGeometry relative="1" as="geometry" />
        </mxCell>
        <mxCell id="HTADRDToEBWl2uzCXdgg-5" value="" style="points=[[0.145,0.145,0],[0.5,0,0],[0.855,0.145,0],[1,0.5,0],[0.855,0.855,0],[0.5,1,0],[0.145,0.855,0],[0,0.5,0]];shape=mxgraph.bpmn.event;html=1;verticalLabelPosition=bottom;labelBackgroundColor=#ffffff;verticalAlign=top;align=center;perimeter=ellipsePerimeter;outlineConnect=0;aspect=fixed;outline=standard;symbol=general;" vertex="1" parent="HTADRDToEBWl2uzCXdgg-2">
          <mxGeometry x="50" y="35" width="50" height="50" as="geometry" />
        </mxCell>
        <mxCell id="HTADRDToEBWl2uzCXdgg-6" value="Select Online Consultation&lt;br&gt;(Select Form)" style="points=[[0.25,0,0],[0.5,0,0],[0.75,0,0],[1,0.25,0],[1,0.5,0],[1,0.75,0],[0.75,1,0],[0.5,1,0],[0.25,1,0],[0,0.75,0],[0,0.5,0],[0,0.25,0]];shape=mxgraph.bpmn.task2;whiteSpace=wrap;rectStyle=rounded;size=10;html=1;container=1;expand=0;collapsible=0;taskMarker=user;" vertex="1" parent="HTADRDToEBWl2uzCXdgg-2">
          <mxGeometry x="140" y="20" width="120" height="80" as="geometry" />
        </mxCell>
        <mxCell id="HTADRDToEBWl2uzCXdgg-8" value="Pre-populate Form" style="points=[[0.25,0,0],[0.5,0,0],[0.75,0,0],[1,0.25,0],[1,0.5,0],[1,0.75,0],[0.75,1,0],[0.5,1,0],[0.25,1,0],[0,0.75,0],[0,0.5,0],[0,0.25,0]];shape=mxgraph.bpmn.task2;whiteSpace=wrap;rectStyle=rounded;size=10;html=1;container=1;expand=0;collapsible=0;taskMarker=service;" vertex="1" parent="HTADRDToEBWl2uzCXdgg-2">
          <mxGeometry x="310" y="20" width="120" height="80" as="geometry" />
        </mxCell>
        <mxCell id="HTADRDToEBWl2uzCXdgg-9" style="edgeStyle=orthogonalEdgeStyle;rounded=0;orthogonalLoop=1;jettySize=auto;html=1;entryX=0;entryY=0.5;entryDx=0;entryDy=0;entryPerimeter=0;" edge="1" parent="HTADRDToEBWl2uzCXdgg-2" source="HTADRDToEBWl2uzCXdgg-6" target="HTADRDToEBWl2uzCXdgg-8">
          <mxGeometry relative="1" as="geometry" />
        </mxCell>
        <mxCell id="HTADRDToEBWl2uzCXdgg-16" style="edgeStyle=orthogonalEdgeStyle;rounded=0;orthogonalLoop=1;jettySize=auto;html=1;" edge="1" parent="HTADRDToEBWl2uzCXdgg-2" source="HTADRDToEBWl2uzCXdgg-13" target="HTADRDToEBWl2uzCXdgg-15">
          <mxGeometry relative="1" as="geometry" />
        </mxCell>
        <mxCell id="HTADRDToEBWl2uzCXdgg-13" value="Complete Request Form" style="points=[[0.25,0,0],[0.5,0,0],[0.75,0,0],[1,0.25,0],[1,0.5,0],[1,0.75,0],[0.75,1,0],[0.5,1,0],[0.25,1,0],[0,0.75,0],[0,0.5,0],[0,0.25,0]];shape=mxgraph.bpmn.task2;whiteSpace=wrap;rectStyle=rounded;size=10;html=1;container=1;expand=0;collapsible=0;taskMarker=user;" vertex="1" parent="HTADRDToEBWl2uzCXdgg-2">
          <mxGeometry x="490" y="20" width="120" height="80" as="geometry" />
        </mxCell>
        <mxCell id="HTADRDToEBWl2uzCXdgg-14" style="edgeStyle=orthogonalEdgeStyle;rounded=0;orthogonalLoop=1;jettySize=auto;html=1;entryX=0;entryY=0.5;entryDx=0;entryDy=0;entryPerimeter=0;" edge="1" parent="HTADRDToEBWl2uzCXdgg-2" source="HTADRDToEBWl2uzCXdgg-8" target="HTADRDToEBWl2uzCXdgg-13">
          <mxGeometry relative="1" as="geometry" />
        </mxCell>
        <mxCell id="HTADRDToEBWl2uzCXdgg-15" value="Submit Form" style="points=[[0.25,0,0],[0.5,0,0],[0.75,0,0],[1,0.25,0],[1,0.5,0],[1,0.75,0],[0.75,1,0],[0.5,1,0],[0.25,1,0],[0,0.75,0],[0,0.5,0],[0,0.25,0]];shape=mxgraph.bpmn.task2;whiteSpace=wrap;rectStyle=rounded;size=10;html=1;container=1;expand=0;collapsible=0;taskMarker=user;" vertex="1" parent="HTADRDToEBWl2uzCXdgg-2">
          <mxGeometry x="670" y="20" width="120" height="80" as="geometry" />
        </mxCell>
        <mxCell id="HTADRDToEBWl2uzCXdgg-17" value="" style="points=[[0.145,0.145,0],[0.5,0,0],[0.855,0.145,0],[1,0.5,0],[0.855,0.855,0],[0.5,1,0],[0.145,0.855,0],[0,0.5,0]];shape=mxgraph.bpmn.event;html=1;verticalLabelPosition=bottom;labelBackgroundColor=#ffffff;verticalAlign=top;align=center;perimeter=ellipsePerimeter;outlineConnect=0;aspect=fixed;outline=throwing;symbol=signal;" vertex="1" parent="HTADRDToEBWl2uzCXdgg-2">
          <mxGeometry x="850" y="35" width="50" height="50" as="geometry" />
        </mxCell>
        <mxCell id="HTADRDToEBWl2uzCXdgg-18" style="edgeStyle=orthogonalEdgeStyle;rounded=0;orthogonalLoop=1;jettySize=auto;html=1;entryX=0;entryY=0.5;entryDx=0;entryDy=0;entryPerimeter=0;" edge="1" parent="HTADRDToEBWl2uzCXdgg-2" source="HTADRDToEBWl2uzCXdgg-15" target="HTADRDToEBWl2uzCXdgg-17">
          <mxGeometry relative="1" as="geometry" />
        </mxCell>
        <mxCell id="HTADRDToEBWl2uzCXdgg-52" style="edgeStyle=orthogonalEdgeStyle;rounded=0;orthogonalLoop=1;jettySize=auto;html=1;" edge="1" parent="HTADRDToEBWl2uzCXdgg-2" source="HTADRDToEBWl2uzCXdgg-47" target="HTADRDToEBWl2uzCXdgg-48">
          <mxGeometry relative="1" as="geometry" />
        </mxCell>
        <mxCell id="HTADRDToEBWl2uzCXdgg-47" value="" style="points=[[0.145,0.145,0],[0.5,0,0],[0.855,0.145,0],[1,0.5,0],[0.855,0.855,0],[0.5,1,0],[0.145,0.855,0],[0,0.5,0]];shape=mxgraph.bpmn.event;html=1;verticalLabelPosition=bottom;labelBackgroundColor=#ffffff;verticalAlign=top;align=center;perimeter=ellipsePerimeter;outlineConnect=0;aspect=fixed;outline=catching;symbol=signal;" vertex="1" parent="HTADRDToEBWl2uzCXdgg-2">
          <mxGeometry x="1080" y="35" width="50" height="50" as="geometry" />
        </mxCell>
        <mxCell id="HTADRDToEBWl2uzCXdgg-48" value="Review Consultation" style="points=[[0.25,0,0],[0.5,0,0],[0.75,0,0],[1,0.25,0],[1,0.5,0],[1,0.75,0],[0.75,1,0],[0.5,1,0],[0.25,1,0],[0,0.75,0],[0,0.5,0],[0,0.25,0]];shape=mxgraph.bpmn.task2;whiteSpace=wrap;rectStyle=rounded;size=10;html=1;container=1;expand=0;collapsible=0;taskMarker=user;" vertex="1" parent="HTADRDToEBWl2uzCXdgg-2">
          <mxGeometry x="1180" y="20" width="120" height="80" as="geometry" />
        </mxCell>
        <mxCell id="HTADRDToEBWl2uzCXdgg-51" value="" style="points=[[0.145,0.145,0],[0.5,0,0],[0.855,0.145,0],[1,0.5,0],[0.855,0.855,0],[0.5,1,0],[0.145,0.855,0],[0,0.5,0]];shape=mxgraph.bpmn.event;html=1;verticalLabelPosition=bottom;labelBackgroundColor=#ffffff;verticalAlign=top;align=center;perimeter=ellipsePerimeter;outlineConnect=0;aspect=fixed;outline=end;symbol=terminate;" vertex="1" parent="HTADRDToEBWl2uzCXdgg-2">
          <mxGeometry x="1340" y="35" width="50" height="50" as="geometry" />
        </mxCell>
        <mxCell id="HTADRDToEBWl2uzCXdgg-53" style="edgeStyle=orthogonalEdgeStyle;rounded=0;orthogonalLoop=1;jettySize=auto;html=1;entryX=0;entryY=0.5;entryDx=0;entryDy=0;entryPerimeter=0;" edge="1" parent="HTADRDToEBWl2uzCXdgg-2" source="HTADRDToEBWl2uzCXdgg-48" target="HTADRDToEBWl2uzCXdgg-51">
          <mxGeometry relative="1" as="geometry" />
        </mxCell>
        <mxCell id="HTADRDToEBWl2uzCXdgg-3" value="Practitioner" style="swimlane;html=1;startSize=20;horizontal=0;" vertex="1" parent="HTADRDToEBWl2uzCXdgg-1">
          <mxGeometry y="140" width="1410" height="190" as="geometry" />
        </mxCell>
        <mxCell id="HTADRDToEBWl2uzCXdgg-19" value="" style="points=[[0.145,0.145,0],[0.5,0,0],[0.855,0.145,0],[1,0.5,0],[0.855,0.855,0],[0.5,1,0],[0.145,0.855,0],[0,0.5,0]];shape=mxgraph.bpmn.event;html=1;verticalLabelPosition=bottom;labelBackgroundColor=#ffffff;verticalAlign=top;align=center;perimeter=ellipsePerimeter;outlineConnect=0;aspect=fixed;outline=catching;symbol=signal;" vertex="1" parent="HTADRDToEBWl2uzCXdgg-3">
          <mxGeometry x="450" y="70" width="50" height="50" as="geometry" />
        </mxCell>
        <mxCell id="HTADRDToEBWl2uzCXdgg-23" style="edgeStyle=orthogonalEdgeStyle;rounded=0;orthogonalLoop=1;jettySize=auto;html=1;" edge="1" parent="HTADRDToEBWl2uzCXdgg-3" source="HTADRDToEBWl2uzCXdgg-20" target="HTADRDToEBWl2uzCXdgg-22">
          <mxGeometry relative="1" as="geometry" />
        </mxCell>
        <mxCell id="HTADRDToEBWl2uzCXdgg-20" value="Perform Online Consulation" style="points=[[0.25,0,0],[0.5,0,0],[0.75,0,0],[1,0.25,0],[1,0.5,0],[1,0.75,0],[0.75,1,0],[0.5,1,0],[0.25,1,0],[0,0.75,0],[0,0.5,0],[0,0.25,0]];shape=mxgraph.bpmn.task2;whiteSpace=wrap;rectStyle=rounded;size=10;html=1;container=1;expand=0;collapsible=0;taskMarker=user;" vertex="1" parent="HTADRDToEBWl2uzCXdgg-3">
          <mxGeometry x="550" y="55" width="120" height="80" as="geometry" />
        </mxCell>
        <mxCell id="HTADRDToEBWl2uzCXdgg-21" style="edgeStyle=orthogonalEdgeStyle;rounded=0;orthogonalLoop=1;jettySize=auto;html=1;entryX=0;entryY=0.5;entryDx=0;entryDy=0;entryPerimeter=0;" edge="1" parent="HTADRDToEBWl2uzCXdgg-3" source="HTADRDToEBWl2uzCXdgg-19" target="HTADRDToEBWl2uzCXdgg-20">
          <mxGeometry relative="1" as="geometry" />
        </mxCell>
        <mxCell id="HTADRDToEBWl2uzCXdgg-25" style="edgeStyle=orthogonalEdgeStyle;rounded=0;orthogonalLoop=1;jettySize=auto;html=1;" edge="1" parent="HTADRDToEBWl2uzCXdgg-3" source="HTADRDToEBWl2uzCXdgg-22" target="HTADRDToEBWl2uzCXdgg-24">
          <mxGeometry relative="1" as="geometry" />
        </mxCell>
        <mxCell id="HTADRDToEBWl2uzCXdgg-22" value="Complete Response Form" style="points=[[0.25,0,0],[0.5,0,0],[0.75,0,0],[1,0.25,0],[1,0.5,0],[1,0.75,0],[0.75,1,0],[0.5,1,0],[0.25,1,0],[0,0.75,0],[0,0.5,0],[0,0.25,0]];shape=mxgraph.bpmn.task2;whiteSpace=wrap;rectStyle=rounded;size=10;html=1;container=1;expand=0;collapsible=0;taskMarker=user;" vertex="1" parent="HTADRDToEBWl2uzCXdgg-3">
          <mxGeometry x="720" y="55" width="120" height="80" as="geometry" />
        </mxCell>
        <mxCell id="HTADRDToEBWl2uzCXdgg-24" value="Consultation Finished&lt;br&gt;Submit Form" style="points=[[0.25,0,0],[0.5,0,0],[0.75,0,0],[1,0.25,0],[1,0.5,0],[1,0.75,0],[0.75,1,0],[0.5,1,0],[0.25,1,0],[0,0.75,0],[0,0.5,0],[0,0.25,0]];shape=mxgraph.bpmn.task2;whiteSpace=wrap;rectStyle=rounded;size=10;html=1;container=1;expand=0;collapsible=0;taskMarker=user;" vertex="1" parent="HTADRDToEBWl2uzCXdgg-3">
          <mxGeometry x="900" y="55" width="120" height="80" as="geometry" />
        </mxCell>
        <mxCell id="HTADRDToEBWl2uzCXdgg-27" value="" style="points=[[0.145,0.145,0],[0.5,0,0],[0.855,0.145,0],[1,0.5,0],[0.855,0.855,0],[0.5,1,0],[0.145,0.855,0],[0,0.5,0]];shape=mxgraph.bpmn.event;html=1;verticalLabelPosition=bottom;labelBackgroundColor=#ffffff;verticalAlign=top;align=center;perimeter=ellipsePerimeter;outlineConnect=0;aspect=fixed;outline=throwing;symbol=signal;" vertex="1" parent="HTADRDToEBWl2uzCXdgg-3">
          <mxGeometry x="1080" y="70" width="50" height="50" as="geometry" />
        </mxCell>
        <mxCell id="HTADRDToEBWl2uzCXdgg-28" style="edgeStyle=orthogonalEdgeStyle;rounded=0;orthogonalLoop=1;jettySize=auto;html=1;entryX=0;entryY=0.5;entryDx=0;entryDy=0;entryPerimeter=0;" edge="1" parent="HTADRDToEBWl2uzCXdgg-3" source="HTADRDToEBWl2uzCXdgg-24" target="HTADRDToEBWl2uzCXdgg-27">
          <mxGeometry relative="1" as="geometry" />
        </mxCell>
        <mxCell id="HTADRDToEBWl2uzCXdgg-11" style="edgeStyle=orthogonalEdgeStyle;rounded=0;orthogonalLoop=1;jettySize=auto;html=1;" edge="1" parent="HTADRDToEBWl2uzCXdgg-1" source="HTADRDToEBWl2uzCXdgg-10" target="HTADRDToEBWl2uzCXdgg-8">
          <mxGeometry relative="1" as="geometry" />
        </mxCell>
        <mxCell id="HTADRDToEBWl2uzCXdgg-12" value="Query Existing Data" style="edgeLabel;html=1;align=center;verticalAlign=middle;resizable=0;points=[];" connectable="0" vertex="1" parent="HTADRDToEBWl2uzCXdgg-11">
          <mxGeometry x="0.0125" y="1" relative="1" as="geometry">
            <mxPoint as="offset" />
          </mxGeometry>
        </mxCell>
        <mxCell id="HTADRDToEBWl2uzCXdgg-4" value="Clinical Data Repos" style="swimlane;html=1;startSize=20;horizontal=0;" vertex="1" parent="HTADRDToEBWl2uzCXdgg-1">
          <mxGeometry y="330" width="1410" height="420" as="geometry" />
        </mxCell>
        <mxCell id="HTADRDToEBWl2uzCXdgg-10" value="Clinical Data Repositories" style="shape=datastore;html=1;labelPosition=center;verticalLabelPosition=bottom;align=center;verticalAlign=top;" vertex="1" parent="HTADRDToEBWl2uzCXdgg-4">
          <mxGeometry x="330" y="130" width="80" height="80" as="geometry" />
        </mxCell>
        <mxCell id="HTADRDToEBWl2uzCXdgg-31" style="edgeStyle=orthogonalEdgeStyle;rounded=0;orthogonalLoop=1;jettySize=auto;html=1;" edge="1" parent="HTADRDToEBWl2uzCXdgg-4" source="HTADRDToEBWl2uzCXdgg-29" target="HTADRDToEBWl2uzCXdgg-30">
          <mxGeometry relative="1" as="geometry" />
        </mxCell>
        <mxCell id="HTADRDToEBWl2uzCXdgg-29" value="" style="points=[[0.145,0.145,0],[0.5,0,0],[0.855,0.145,0],[1,0.5,0],[0.855,0.855,0],[0.5,1,0],[0.145,0.855,0],[0,0.5,0]];shape=mxgraph.bpmn.event;html=1;verticalLabelPosition=bottom;labelBackgroundColor=#ffffff;verticalAlign=top;align=center;perimeter=ellipsePerimeter;outlineConnect=0;aspect=fixed;outline=catching;symbol=signal;" vertex="1" parent="HTADRDToEBWl2uzCXdgg-4">
          <mxGeometry x="510" y="65" width="50" height="50" as="geometry" />
        </mxCell>
        <mxCell id="HTADRDToEBWl2uzCXdgg-33" style="edgeStyle=orthogonalEdgeStyle;rounded=0;orthogonalLoop=1;jettySize=auto;html=1;" edge="1" parent="HTADRDToEBWl2uzCXdgg-4" source="HTADRDToEBWl2uzCXdgg-30" target="HTADRDToEBWl2uzCXdgg-32">
          <mxGeometry relative="1" as="geometry" />
        </mxCell>
        <mxCell id="HTADRDToEBWl2uzCXdgg-30" value="Extract Data" style="points=[[0.25,0,0],[0.5,0,0],[0.75,0,0],[1,0.25,0],[1,0.5,0],[1,0.75,0],[0.75,1,0],[0.5,1,0],[0.25,1,0],[0,0.75,0],[0,0.5,0],[0,0.25,0]];shape=mxgraph.bpmn.task2;whiteSpace=wrap;rectStyle=rounded;size=10;html=1;container=1;expand=0;collapsible=0;taskMarker=service;" vertex="1" parent="HTADRDToEBWl2uzCXdgg-4">
          <mxGeometry x="620" y="50" width="120" height="80" as="geometry" />
        </mxCell>
        <mxCell id="HTADRDToEBWl2uzCXdgg-35" style="edgeStyle=orthogonalEdgeStyle;rounded=0;orthogonalLoop=1;jettySize=auto;html=1;" edge="1" parent="HTADRDToEBWl2uzCXdgg-4" source="HTADRDToEBWl2uzCXdgg-32" target="HTADRDToEBWl2uzCXdgg-34">
          <mxGeometry relative="1" as="geometry" />
        </mxCell>
        <mxCell id="HTADRDToEBWl2uzCXdgg-37" style="edgeStyle=orthogonalEdgeStyle;rounded=0;orthogonalLoop=1;jettySize=auto;html=1;entryX=1;entryY=0.5;entryDx=0;entryDy=0;" edge="1" parent="HTADRDToEBWl2uzCXdgg-4" source="HTADRDToEBWl2uzCXdgg-32" target="HTADRDToEBWl2uzCXdgg-10">
          <mxGeometry relative="1" as="geometry">
            <Array as="points">
              <mxPoint x="860" y="170" />
            </Array>
          </mxGeometry>
        </mxCell>
        <mxCell id="HTADRDToEBWl2uzCXdgg-38" value="Persist Data" style="edgeLabel;html=1;align=center;verticalAlign=middle;resizable=0;points=[];" connectable="0" vertex="1" parent="HTADRDToEBWl2uzCXdgg-37">
          <mxGeometry x="-0.049" y="-2" relative="1" as="geometry">
            <mxPoint as="offset" />
          </mxGeometry>
        </mxCell>
        <mxCell id="HTADRDToEBWl2uzCXdgg-32" value="Persist Data" style="points=[[0.25,0,0],[0.5,0,0],[0.75,0,0],[1,0.25,0],[1,0.5,0],[1,0.75,0],[0.75,1,0],[0.5,1,0],[0.25,1,0],[0,0.75,0],[0,0.5,0],[0,0.25,0]];shape=mxgraph.bpmn.task2;whiteSpace=wrap;rectStyle=rounded;size=10;html=1;container=1;expand=0;collapsible=0;taskMarker=service;" vertex="1" parent="HTADRDToEBWl2uzCXdgg-4">
          <mxGeometry x="800" y="50" width="120" height="80" as="geometry" />
        </mxCell>
        <mxCell id="HTADRDToEBWl2uzCXdgg-34" value="" style="points=[[0.145,0.145,0],[0.5,0,0],[0.855,0.145,0],[1,0.5,0],[0.855,0.855,0],[0.5,1,0],[0.145,0.855,0],[0,0.5,0]];shape=mxgraph.bpmn.event;html=1;verticalLabelPosition=bottom;labelBackgroundColor=#ffffff;verticalAlign=top;align=center;perimeter=ellipsePerimeter;outlineConnect=0;aspect=fixed;outline=throwing;symbol=signal;" vertex="1" parent="HTADRDToEBWl2uzCXdgg-4">
          <mxGeometry x="980" y="65" width="50" height="50" as="geometry" />
        </mxCell>
        <mxCell id="HTADRDToEBWl2uzCXdgg-42" style="edgeStyle=orthogonalEdgeStyle;rounded=0;orthogonalLoop=1;jettySize=auto;html=1;" edge="1" parent="HTADRDToEBWl2uzCXdgg-4" source="HTADRDToEBWl2uzCXdgg-39" target="HTADRDToEBWl2uzCXdgg-41">
          <mxGeometry relative="1" as="geometry" />
        </mxCell>
        <mxCell id="HTADRDToEBWl2uzCXdgg-39" value="" style="points=[[0.145,0.145,0],[0.5,0,0],[0.855,0.145,0],[1,0.5,0],[0.855,0.855,0],[0.5,1,0],[0.145,0.855,0],[0,0.5,0]];shape=mxgraph.bpmn.event;html=1;verticalLabelPosition=bottom;labelBackgroundColor=#ffffff;verticalAlign=top;align=center;perimeter=ellipsePerimeter;outlineConnect=0;aspect=fixed;outline=catching;symbol=signal;" vertex="1" parent="HTADRDToEBWl2uzCXdgg-4">
          <mxGeometry x="580" y="250" width="50" height="50" as="geometry" />
        </mxCell>
        <mxCell id="HTADRDToEBWl2uzCXdgg-40" style="edgeStyle=orthogonalEdgeStyle;rounded=0;orthogonalLoop=1;jettySize=auto;html=1;entryX=0;entryY=0.5;entryDx=0;entryDy=0;entryPerimeter=0;dashed=1;" edge="1" parent="HTADRDToEBWl2uzCXdgg-4" source="HTADRDToEBWl2uzCXdgg-34" target="HTADRDToEBWl2uzCXdgg-39">
          <mxGeometry relative="1" as="geometry">
            <Array as="points">
              <mxPoint x="1005" y="210" />
              <mxPoint x="550" y="210" />
              <mxPoint x="550" y="275" />
            </Array>
          </mxGeometry>
        </mxCell>
        <mxCell id="HTADRDToEBWl2uzCXdgg-44" style="edgeStyle=orthogonalEdgeStyle;rounded=0;orthogonalLoop=1;jettySize=auto;html=1;" edge="1" parent="HTADRDToEBWl2uzCXdgg-4" source="HTADRDToEBWl2uzCXdgg-41" target="HTADRDToEBWl2uzCXdgg-43">
          <mxGeometry relative="1" as="geometry" />
        </mxCell>
        <mxCell id="HTADRDToEBWl2uzCXdgg-41" value="Create eReport" style="points=[[0.25,0,0],[0.5,0,0],[0.75,0,0],[1,0.25,0],[1,0.5,0],[1,0.75,0],[0.75,1,0],[0.5,1,0],[0.25,1,0],[0,0.75,0],[0,0.5,0],[0,0.25,0]];shape=mxgraph.bpmn.task2;whiteSpace=wrap;rectStyle=rounded;size=10;html=1;container=1;expand=0;collapsible=0;taskMarker=service;" vertex="1" parent="HTADRDToEBWl2uzCXdgg-4">
          <mxGeometry x="680" y="235" width="120" height="80" as="geometry" />
        </mxCell>
        <mxCell id="HTADRDToEBWl2uzCXdgg-43" value="Send eReport&lt;br&gt;&lt;br&gt;(GP System Writeback)" style="points=[[0.25,0,0],[0.5,0,0],[0.75,0,0],[1,0.25,0],[1,0.5,0],[1,0.75,0],[0.75,1,0],[0.5,1,0],[0.25,1,0],[0,0.75,0],[0,0.5,0],[0,0.25,0]];shape=mxgraph.bpmn.task2;whiteSpace=wrap;rectStyle=rounded;size=10;html=1;container=1;expand=0;collapsible=0;taskMarker=send;" vertex="1" parent="HTADRDToEBWl2uzCXdgg-4">
          <mxGeometry x="850" y="235" width="120" height="80" as="geometry" />
        </mxCell>
        <mxCell id="HTADRDToEBWl2uzCXdgg-45" value="" style="points=[[0.145,0.145,0],[0.5,0,0],[0.855,0.145,0],[1,0.5,0],[0.855,0.855,0],[0.5,1,0],[0.145,0.855,0],[0,0.5,0]];shape=mxgraph.bpmn.event;html=1;verticalLabelPosition=bottom;labelBackgroundColor=#ffffff;verticalAlign=top;align=center;perimeter=ellipsePerimeter;outlineConnect=0;aspect=fixed;outline=end;symbol=message;" vertex="1" parent="HTADRDToEBWl2uzCXdgg-4">
          <mxGeometry x="1021" y="250" width="50" height="50" as="geometry" />
        </mxCell>
        <mxCell id="HTADRDToEBWl2uzCXdgg-46" style="edgeStyle=orthogonalEdgeStyle;rounded=0;orthogonalLoop=1;jettySize=auto;html=1;entryX=0;entryY=0.5;entryDx=0;entryDy=0;entryPerimeter=0;" edge="1" parent="HTADRDToEBWl2uzCXdgg-4" source="HTADRDToEBWl2uzCXdgg-43" target="HTADRDToEBWl2uzCXdgg-45">
          <mxGeometry relative="1" as="geometry" />
        </mxCell>
        <mxCell id="HTADRDToEBWl2uzCXdgg-54" style="edgeStyle=orthogonalEdgeStyle;rounded=0;orthogonalLoop=1;jettySize=auto;html=1;entryX=0.5;entryY=1;entryDx=0;entryDy=0;entryPerimeter=0;" edge="1" parent="HTADRDToEBWl2uzCXdgg-4" source="HTADRDToEBWl2uzCXdgg-10" target="HTADRDToEBWl2uzCXdgg-41">
          <mxGeometry relative="1" as="geometry">
            <Array as="points">
              <mxPoint x="370" y="370" />
              <mxPoint x="740" y="370" />
            </Array>
          </mxGeometry>
        </mxCell>
        <mxCell id="HTADRDToEBWl2uzCXdgg-55" value="Read Form Data" style="edgeLabel;html=1;align=center;verticalAlign=middle;resizable=0;points=[];" connectable="0" vertex="1" parent="HTADRDToEBWl2uzCXdgg-54">
          <mxGeometry x="0.4462" y="-1" relative="1" as="geometry">
            <mxPoint as="offset" />
          </mxGeometry>
        </mxCell>
        <mxCell id="HTADRDToEBWl2uzCXdgg-26" style="edgeStyle=orthogonalEdgeStyle;rounded=0;orthogonalLoop=1;jettySize=auto;html=1;entryX=0;entryY=0.5;entryDx=0;entryDy=0;entryPerimeter=0;dashed=1;" edge="1" parent="HTADRDToEBWl2uzCXdgg-1" source="HTADRDToEBWl2uzCXdgg-17" target="HTADRDToEBWl2uzCXdgg-19">
          <mxGeometry relative="1" as="geometry">
            <Array as="points">
              <mxPoint x="875" y="160" />
              <mxPoint x="430" y="160" />
              <mxPoint x="430" y="235" />
            </Array>
          </mxGeometry>
        </mxCell>
        <mxCell id="HTADRDToEBWl2uzCXdgg-36" style="edgeStyle=orthogonalEdgeStyle;rounded=0;orthogonalLoop=1;jettySize=auto;html=1;entryX=0;entryY=0.5;entryDx=0;entryDy=0;entryPerimeter=0;dashed=1;" edge="1" parent="HTADRDToEBWl2uzCXdgg-1" source="HTADRDToEBWl2uzCXdgg-27" target="HTADRDToEBWl2uzCXdgg-29">
          <mxGeometry relative="1" as="geometry">
            <Array as="points">
              <mxPoint x="1105" y="300" />
              <mxPoint x="460" y="300" />
              <mxPoint x="460" y="415" />
            </Array>
          </mxGeometry>
        </mxCell>
        <mxCell id="HTADRDToEBWl2uzCXdgg-49" style="edgeStyle=orthogonalEdgeStyle;rounded=0;orthogonalLoop=1;jettySize=auto;html=1;dashed=1;" edge="1" parent="HTADRDToEBWl2uzCXdgg-1" source="HTADRDToEBWl2uzCXdgg-27" target="HTADRDToEBWl2uzCXdgg-47">
          <mxGeometry relative="1" as="geometry" />
        </mxCell>
      </root>
    </mxGraphModel>
  </diagram>
</mxfile>
